<svg version="1.1" xmlns="http://www.w3.org/2000/svg" width="346.667" height="346.667" viewBox="0 0 260.000000 260.000000"><path d="M110 29c-2.5 2.5-2.5 3.2-.1 6.1 1.9 2.3 2.1 2.3 4.8.9 3.5-2 4-4.3 1.4-6.9-2.6-2.6-3.6-2.6-6.1-.1zM77.8 37.5c-.2.1-3.2.6-6.8.9-3.6.4-8.7 1-11.5 1.3-2.7.3-6.1.7-7.4.7-2.6.2-6 3.9-6.6 7.2-.2 1-.4 1.9-.5 1.9-.4 0-1 4.5-1.6 11-.4 3.8-.7 7.4-.8 8-.1 1.2 2.5 1.3 8.4.3 2.5-.5 6.1-1.1 8-1.4 1.9-.2 4.9-.7 6.5-1.1 1.7-.3 4.1-.7 5.5-.9 1.4-.1 4.5-.6 7-1 5.5-.9 7.3-.9 12.7 0 2.3.4 5.6.9 7.2 1.1 1.7.2 3.8.6 4.8.9 1.6.4 5.8 1.1 12.8 2.1 1.1.1 3.7.6 5.9 1l3.8.8-.5-6.9c-.6-7.5-1-9.6-2.8-16.1-1.7-6.3-2.5-6.8-14.9-7.8-3.6-.3-7.8-.8-9.5-1.1-3.5-.6-19.2-1.3-19.7-.9zm4.3 9.8c.2 1.8.2 5.6-.1 8.6-.5 5.8-.9 6-7.2 6.4-1.6.1-2.8.6-2.8 1 0 .5-.4.6-.9.3-.5-.4-2.1-.2-3.6.4-1.9.7-2.4.7-1.9-.1.4-.8.1-.8-1.2-.1-1.7.8-6.3 1.8-13.7 2.8-1.6.2-3.3.6-3.8.9-2.3 1.5-.9-13.1 1.7-17 1.2-1.8 2.8-2.4 8.2-3 3.7-.3 8.1-.9 9.7-1.2 1.7-.3 4.2-.6 5.8-.6 1.5.1 2.7-.2 2.7-.6 0-.3 1.5-.7 3.4-.8 3.1-.2 3.4.1 3.7 3zM96 45.5c2.4.5 5.9 1 14 2 1.9.3 4.4.6 5.5.9 1.1.2 2.3.5 2.7.5 1.1.2 2.8 6.3 3.4 12.7l.6 6.3-3.1-.9c-1.7-.5-3.5-.9-3.9-.9-1.4-.1-9.7-1.4-11.7-1.8-2.1-.5-4.4-.8-11.5-1.8-2.5-.3-4.9-1-5.4-1.5-.6-.6-1-4.6-1.1-9l-.2-8 4.1.5c2.3.2 5.2.7 6.6 1z"/><path d="M71.5 68.9c-5.5 1.3-10.8 2.4-11.7 2.4-1 .1-1.8.4-1.8.7 0 .4-.6.7-1.2.7-3.5.1-15.7 4-15.9 5.2-.7 3.7-.2 67.4.6 67.9 1.1.7 85.3.9 85.3.2 0-.3 0-.7.1-1 .1-.3.2-15.3.3-33.4 0-27.5-.2-33-1.4-34.3-1.5-1.4-30.2-9.4-34.5-9.6-1.3-.1-2.3-.3-2.3-.7 0-1.2-8.1-.4-17.5 1.9zm9.2 4.9c-2.1 2.3-2.1 4.1 0 6.4.9 1 1.1 1.8.5 1.8-1.3 0-3.2-3.2-3.2-5.2 0-1.6 3.2-5.9 3.9-5.2.2.2-.3 1.2-1.2 2.2zm7.8.1c-.6.5-2.5-1-2.5-2 0-.5.6-.4 1.4.3.8.7 1.2 1.5 1.1 1.7zm1 3.3c-.3 1.2-1.4 3.1-2.6 4.3l-2.2 2 2.2-3.3c1.2-1.7 2-3.2 1.6-3.2-.3 0-.3-.5 0-1 1-1.6 1.4-1.1 1 1.2zM85 97c0 .5-.4 1-.9 1-.6 0-1.3-.5-1.6-1-.3-.6.1-1 .9-1 .9 0 1.6.4 1.6 1zm-6.3 6.7c-.3 1-.5.4-.5-1.2 0-1.7.2-2.4.5-1.8.2.7.2 2.1 0 3zm10.9-1.8c0 1.1-.4 1.7-.8 1.5-1-.7-1-3.4 0-3.4.4 0 .8.9.8 1.9zm-3.8 5.8c-1 .2-2.6.2-3.5 0-1-.3-.2-.5 1.7-.5s2.7.2 1.8.5zm22.7 5.3c.3.5.1 1-.4 1-.6 0-1.1-.5-1.1-1 0-.6.2-1 .4-1 .3 0 .8.4 1.1 1zM63 119.4c0 .3-.4.8-1 1.1-.5.3-1 .1-1-.4 0-.6.5-1.1 1-1.1.6 0 1 .2 1 .4zm43.5.6c.3.5.1 1-.4 1-.6 0-1.1-.5-1.1-1 0-.6.2-1 .4-1 .3 0 .8.4 1.1 1zM65 127c0 .5-.5 1-1.1 1-.5 0-.7-.5-.4-1 .3-.6.8-1 1.1-1 .2 0 .4.4.4 1zm-15 9.5c-.7.9-1.5 1.3-1.7 1.1-.7-.7.7-2.6 1.9-2.6.6 0 .6.6-.2 1.5zm5.9 2.9c-.1 2-.2 2-.6.1-.3-1.1-1-2.7-1.7-3.5-1-1.3-.9-1.3.7-.1.9.7 1.6 2.3 1.6 3.5zm57.2-.8c-.5 1.6-1 2.1-1 1.2-.1-1.8 1-5.1 1.5-4.5.2.1-.1 1.6-.5 3.3zm6.9-2.1c0 1.2-1.9 1.2-2.3 0-.4-.9-.1-1.2.9-.8.7.3 1.4.7 1.4.8zm-.5 5.4c-.3.6-1.1 1.1-1.6 1.1s-.4-.6.3-1.4c1.4-1.6 2.4-1.3 1.3.3zm-69 .1c.3.5.2 1-.4 1-.5 0-1.3-.5-1.6-1-.3-.6-.2-1 .4-1 .5 0 1.3.4 1.6 1zm4.2.6c-.3.3-1.2.4-1.9.1-.8-.3-.5-.6.6-.6 1.1-.1 1.7.2 1.3.5zm61 0c-.3.3-1.2.4-1.9.1-.8-.3-.5-.6.6-.6 1.1-.1 1.7.2 1.3.5zM129.4 114.2c.1 6.9.3 12.9.6 13.2.3.3 2.3.1 4.5-.4 4.2-.9 7.5-1.5 14-2.6 4.8-.7 5.7-1.2 5.2-2.7-.2-.7 0-2 .5-3 .5-.9.5-1.7 0-1.7-.9 0-.9-6.7.1-7.6.2-.3.3-1.4 0-2.4-.5-1.9-3.6-2.9-10.3-3.6-1.4-.1-2.7-.3-3-.4-.3-.1-1.7-.2-3.2-.2-1.6-.1-2.8-.3-2.8-.7 0-.3-1.3-.6-2.8-.6h-2.9l.1 12.7zM157.4 106.1c-.5.8-1 4.6-1 8.6l-.2 7.2 7.7-.5c4.2-.3 8.7-.7 10.1-1 1.4-.3 4.3-.6 6.5-.7l4-.2.1-5.8.1-5.7-3.3-.2c-1.9-.1-4.2-.2-5.1-.2-1-.1-2.1-.6-2.5-1.1-.5-.6-.8-.5-.8.3s-.6 1-1.7.5c-1-.5-4-.8-6.8-.8-2.7 0-5.3-.3-5.6-.8-.4-.5-1-.3-1.5.4zM188.3 108.9c-.8.5-1 5.3-.5 8.6.2 1.1 11.3 1.2 13.1.1.5-.4 1.2-.2 1.6.4.4.6 1.2.7 1.8.3.7-.5 2.6-.9 4.2-.9 6.9-.3 6.6-.2 6.3-4.1l-.3-3.6-11-.4c-6-.2-11.7-.5-12.6-.7-.9-.2-2.1-.1-2.6.3zM216.8 111.8c-.2 1-.2 2.5 0 3.5.3 1.7 1.3 1.8 12 1.2 6.5-.4 13.2-.7 15-.7 3 0 3.3-.3 3-2.6l-.3-2.6-14.7-.2c-12.9-.2-14.7 0-15 1.4zM44 149l-3.4.5-.1 11.5c-.1 9.7-.5 12.4-2.5 17-2.7 6.4-3.9 8.1-5.4 7.9-4.7-.6-6.2.2-6 2.8.1 2.4.5 2.8 2.7 2.7 2.9-.1 3 .5.7 6.3-.6 1.8-1.6 3.4-2.1 3.4-.5.1-2.2.3-3.9.4-1.6.1-3.4.3-3.8.4-.7.1-.8 1.1-.3 5.3.1.4 1.2.5 2.6.2 3-.5 3.2.7 1 6-1.5 3.6-2.4 4-7.7 3.6-2.6-.1-2.8.2-2.8 3.3 0 3.2.3 3.5 2.5 3.2 3.3-.3 3.8.7 2 4.1-1.2 2.5-1.2 2.9.3 4 .9.7 1.8.8 2 .3.2-.5.8-.7 1.3-.3 1.9 1.1 4.8-.8 5.4-3.6.4-1.7 1.2-3.3 1.8-3.7 1.2-.7 106.8-1.2 109.8-.5.9.2 2.5 2.3 3.4 4.7 1.7 4 2.1 4.3 5.4 4 4.2-.2 4.8-1.4 2.8-5.5-1.6-3.1-1.1-3.6 3.1-3.1 1.3.2 1.4-.1 1.7-4.1.2-2.7 0-2.8-3.9-2.5-3.9.2-4.2 0-6.3-4.2-2.5-5-2.3-6.1 1.1-5.5 2 .3 2.3 0 2.2-2.9-.1-3-.3-3.2-3.9-3.2-3.6-.1-5.8-1.7-5.8-4.2 0-.5-.7-1.8-1.5-3.1-.8-1.2-1.2-2.3-.9-2.3.3-.1 1-.3 1.5-.4.6-.1 1.9-.3 2.9-.4 1.5-.1 1.8-.6 1.3-2.4-.7-2.9-1.7-3.5-5.3-3.1-2.6.3-4.6-1.2-4.8-3.9 0-.4-.9-2.8-2-5.2-1.6-3.7-2-6.6-1.9-15.5.1-6.1-.1-11.3-.4-11.6-.7-.7-78.1-1.1-82.8-.4zm68.6 8.7c.4 1.6 1.2 3.7 1.7 4.8.6 1.1 1.2 2.5 1.3 3.1.1.6 1.8 4.8 3.8 9.3 2 4.5 3.6 8.8 3.6 9.5 0 1.1-7.3 1.4-39.4 1.4H44.2l.8-2.6c.4-1.5 2.1-5.7 3.8-9.5 1.7-3.7 2.9-6.7 2.6-6.7-.3 0 .1-1 .8-2.3.6-1.2 1.3-2.7 1.4-3.2.1-.6.7-2.2 1.3-3.8L56 155h56l.6 2.7zm15.3 38.1c1.2 2.5 1.9 4.7 1.6 5.1-.9.9-91.5.7-91.5-.2 0-1.5 3.1-8.1 4-8.7.6-.4 19.6-.6 42.4-.6h41.4l2.1 4.4zm5.8 14.7c3.4 6.4 3.4 6.5 1.6 6.6-7.4.4-103.4.1-103.8-.3-.3-.3.4-2.5 1.4-4.9l2-4.4h97.2l1.6 3z"/><path d="M58.5 158.9c-.2.9-.5 1.9-.6 2.3 0 .4-.7 3-1.4 5.7l-1.3 4.9 3 .6c1.7.3 4.3.6 5.9.6 1.6 0 2.9.5 2.9 1.1 0 .5.4.8.9.5.5-.4 4.4.1 8.6.9 4.3.8 8.1 1.2 8.5 1 .5-.3 2.5-.7 4.6-1 2.2-.3 5-.7 6.4-1 3.4-.7 8.8-1.6 11.4-1.9 3.8-.4 4.6-1.4 3.6-4.2-.6-1.4-.8-2.9-.5-3.4.3-.5.1-1.1-.5-1.5-.5-.3-1-1.7-1-3 0-1.8-.7-2.6-2.2-2.9-1.3-.3-12.5-.4-25-.4-19.9.1-22.8.3-23.3 1.7z"/></svg>